PathFileType	4	(X/Y/Z)	/Users/itak/Documents/Research/Walk-IL/dataset/trc/00123_00007.trc
DataRate	CameraRate	NumFrames	NumMarkers	Units	OrigDataRate	OrigDataStartFrame	OrigNumFrames
100.000000	100.000000	4	53	mm	100.000000	454	727
Frame#	Time	RPSI			LPSI			L3			STRN			T10			C7			CLAV			RBAK			LBAK			LSHO			LUPA			LAEL			LAOL			LWTS			LWPS			LFRA			LIFD			LHPS			LHTS			RSHO			RUPA			RAEL			RAOL			RWTS			RWPS			RFRA			RIFD			RHTS			RHPS			RBHD			LFHD			RFHD			LBHD			LHIP			RHIP			RASI			LASI			LKNE			LTHI			LANK			LTIP			LTOE			LMT1			LMT5			LHEE			RKNE			RTHI			RANK			RTIP			RTOE			RMT1			RMT5			RHEE			
		X1	Y1	Z1	X2	Y2	Z2	X3	Y3	Z3	X4	Y4	Z4	X5	Y5	Z5	X6	Y6	Z6	X7	Y7	Z7	X8	Y8	Z8	X9	Y9	Z9	X10	Y10	Z10	X11	Y11	Z11	X12	Y12	Z12	X13	Y13	Z13	X14	Y14	Z14	X15	Y15	Z15	X16	Y16	Z16	X17	Y17	Z17	X18	Y18	Z18	X19	Y19	Z19	X20	Y20	Z20	X21	Y21	Z21	X22	Y22	Z22	X23	Y23	Z23	X24	Y24	Z24	X25	Y25	Z25	X26	Y26	Z26	X27	Y27	Z27	X28	Y28	Z28	X29	Y29	Z29	X30	Y30	Z30	X31	Y31	Z31	X32	Y32	Z32	X33	Y33	Z33	X34	Y34	Z34	X35	Y35	Z35	X36	Y36	Z36	X37	Y37	Z37	X38	Y38	Z38	X39	Y39	Z39	X40	Y40	Z40	X41	Y41	Z41	X42	Y42	Z42	X43	Y43	Z43	X44	Y44	Z44	X45	Y45	Z45	X46	Y46	Z46	X47	Y47	Z47	X48	Y48	Z48	X49	Y49	Z49	X50	Y50	Z50	X51	Y51	Z51	X52	Y52	Z52	X53	Y53	Z53	

455	4.54	-561.1768188476562	1111.811401367188	-334.4748840332031	-436.9768371582031	1104.096923828125	-277.7128295898438	-493.7172546386719	1141.541381835938	-309.5613098144531	-583.6546630859375	1337.476684570312	-102.9365386962891	-472.8994140625	1292.846557617188	-333.2513732910156	-469.009765625	1584.792358398438	-286.1470947265625	-562.441162109375	1472.908569335938	-130.1403198242188	-528.1485595703125	1404.061279296875	-378.9435424804688	-376.0768127441406	1560.303344726562	-247.5791625976562	-356.9082946777344	1540.93505859375	-138.8652496337891	-285.054443359375	1409.134887695312	-129.9653015136719	-271.3515319824219	1190.099853515625	-120.1744384765625	-288.4371948242188	1181.89599609375	-206.7549133300781	-358.1701965332031	931.678466796875	-60.04605102539062	-297.7859497070312	907.0899658203125	-120.6970596313477	-274.8207702636719	1074.896484375	-108.396858215332	-382.0001525878906	740.3701171875	-64.77082061767578	-310.0476989746094	831.8648071289062	-95.97963714599609	-355.0458068847656	841.9662475585938	-43.33762741088867	-656.7340698242188	1572.363647460938	-320.0268249511719	-706.8305053710938	1502.252563476562	-367.9626770019531	-745.2896728515625	1213.79345703125	-405.0418395996094	-658.9886474609375	1201.759521484375	-363.9546813964844	-828.0943603515625	969.7064208984375	-289.0555114746094	-817.80859375	957.1458740234375	-370.73583984375	-777.2286987304688	1142.828002929688	-396.6451721191406	-838.350341796875	775.3717041015625	-270.9512939453125	-858.4510498046875	862.4254760742188	-273.9420776367188	-849.6264038085938	858.3568725585938	-347.6325988769531	-562.4957885742188	1776.60986328125	-240.4231109619141	-454.2347412109375	1782.3349609375	-47.57473754882812	-577.2932739257812	1815.134765625	-65.47139739990234	-431.5747680664062	1748.805053710938	-226.8677520751953	-380.9039611816406	1005.075012207031	-152.3052368164062	-729.0166625976562	1028.498413085938	-268.4189453125	-705.9908447265625	1091.806640625	-170.2300567626953	-462.5381774902344	1069.830810546875	-68.61466979980469	-480.7991333007812	493.1338806152344	-165.6997680664062	-432.3071899414062	642.5391845703125	-162.4336853027344	-290.7150268554688	119.6576080322266	-503.4220275878906	-345.6526489257812	326.6219177246094	-338.5031127929688	-501.5572509765625	28.45256996154785	-502.5896606445312	-451.3684997558594	76.86192321777344	-535.702880859375	-375.7743835449219	36.43606948852539	-467.6452331542969	-281.2388305664062	194.6840972900391	-559.6602172851562	-764.9047241210938	555.463623046875	-132.6864318847656	-760.7000122070312	825.5993041992188	-202.1617279052734	-789.1823120117188	25.27824211120605	-174.8567657470703	-789.7261962890625	418.8613586425781	-140.3468322753906	-786.907470703125	55.70662689208984	61.23786163330078	-734.0736083984375	45.21954727172852	13.7122745513916	-839.900390625	38.36076354980469	-49.51657104492188	-727.7617797851562	30.29322814941406	-218.0578308105469	
456	4.55	-567.99365234375	1113.389770507812	-327.3430786132812	-442.5276184082031	1105.549072265625	-272.8109436035156	-500.2851867675781	1142.965698242188	-303.4270324707031	-587.2177124023438	1338.73974609375	-94.66855621337891	-479.7010803222656	1294.302490234375	-327.1419677734375	-475.1415710449219	1586.301513671875	-279.5255737304688	-566.4063720703125	1474.19482421875	-122.1028060913086	-535.88134765625	1405.556518554688	-371.5922241210938	-381.8016662597656	1561.762939453125	-242.1956329345703	-361.030517578125	1542.173461914062	-133.9384918212891	-288.5671081542969	1410.686645507812	-126.3868942260742	-273.3475646972656	1191.77685546875	-117.7511444091797	-290.97900390625	1184.07958984375	-204.2732238769531	-358.0270080566406	932.353271484375	-58.91546630859375	-297.9313659667969	908.5508422851562	-120.1036834716797	-275.9447021484375	1076.456298828125	-106.7231521606445	-381.1252136230469	740.8333740234375	-65.39749908447266	-309.6206665039062	833.0361328125	-95.97756195068359	-354.5501708984375	842.3644409179688	-43.15057373046875	-663.4448852539062	1573.873657226562	-310.5690002441406	-714.1990966796875	1503.812377929688	-357.8810424804688	-752.8846435546875	1215.267456054688	-394.9140930175781	-665.6882934570312	1203.577026367188	-355.2082214355469	-834.516845703125	971.9998168945312	-276.3570251464844	-825.341796875	958.7673950195312	-358.0692443847656	-784.7804565429688	1144.242919921875	-385.7620544433594	-845.2318725585938	777.8973999023438	-256.4739685058594	-865.0011596679688	864.9970092773438	-259.9612121582031	-857.045654296875	860.2584228515625	-333.7063903808594	-567.9104614257812	1777.774291992188	-232.9113159179688	-457.6056213378906	1784.133544921875	-41.25484466552734	-580.9039916992188	1816.618774414062	-57.84577178955078	-436.8095397949219	1750.265869140625	-220.6885681152344	-385.599365234375	1005.749206542969	-147.9263916015625	-735.1548461914062	1030.336181640625	-258.7637939453125	-710.4171752929688	1092.995239257812	-160.9104614257812	-465.7054138183594	1070.949829101562	-63.04319000244141	-488.0426025390625	493.6894836425781	-148.2090454101562	-438.9683227539062	643.1007080078125	-149.9810180664062	-296.5909423828125	128.6521148681641	-495.6216125488281	-353.779296875	332.3028564453125	-325.7915344238281	-502.6617126464844	27.92763900756836	-497.4485168457031	-455.8990783691406	81.75682830810547	-527.3905639648438	-377.3551940917969	38.37248992919922	-465.0609741210938	-291.4707336425781	207.2849426269531	-547.1859130859375	-768.0075073242188	555.0638427734375	-128.6744079589844	-765.7886962890625	826.4566040039062	-194.7597351074219	-789.32373046875	25.32648086547852	-174.6848602294922	-792.2392578125	418.3790893554688	-137.4499969482422	-786.7890014648438	54.13484573364258	61.89308929443359	-734.0313720703125	44.52708435058594	13.9439697265625	-840.036376953125	38.15345764160156	-49.21995544433594	-728.0006103515625	30.38808441162109	-218.0306243896484	
457	4.56	-574.4446411132812	1114.693115234375	-320.3218688964844	-447.6554565429688	1106.858642578125	-268.003173828125	-506.5016784667969	1144.23486328125	-297.4358520507812	-590.5044555664062	1339.86865234375	-86.55177307128906	-486.5794677734375	1295.7138671875	-320.871337890625	-481.2276000976562	1587.757568359375	-272.9277038574219	-570.1026611328125	1475.355834960938	-114.1190185546875	-543.5868530273438	1407.1142578125	-364.3331909179688	-387.5106506347656	1563.15185546875	-236.8190460205078	-364.9622802734375	1543.324462890625	-129.1554565429688	-291.928955078125	1412.130615234375	-123.074592590332	-275.2782897949219	1193.367309570312	-115.5349426269531	-293.5408020019531	1186.112182617188	-201.9764709472656	-358.0189208984375	933.0686645507812	-57.79903411865234	-298.173583984375	909.9612426757812	-119.4416809082031	-277.0863342285156	1077.955322265625	-105.1882705688477	-380.6963500976562	741.387939453125	-65.98844146728516	-309.4736633300781	834.1678466796875	-95.90193176269531	-354.3322143554688	842.8101806640625	-42.92658233642578	-670.1024169921875	1575.359619140625	-300.9223937988281	-721.572265625	1505.373657226562	-347.561279296875	-760.4896240234375	1216.735961914062	-384.6047973632812	-672.3096313476562	1205.454711914062	-346.4278259277344	-840.69384765625	974.2369995117188	-263.5156860351562	-832.7227172851562	960.3679809570312	-345.250732421875	-792.2957153320312	1145.648071289062	-374.6941223144531	-851.827880859375	780.3795166015625	-241.90576171875	-871.2684936523438	867.5122680664062	-245.8412017822266	-864.264404296875	862.1342163085938	-319.6347045898438	-573.1870727539062	1778.83349609375	-225.3057556152344	-460.7727966308594	1785.803955078125	-34.90171432495117	-584.2977905273438	1818.033325195312	-50.15522003173828	-441.9208374023438	1751.558959960938	-214.4712524414062	-390.0307312011719	1006.275268554688	-143.5200500488281	-740.9528198242188	1032.078125	-249.1541442871094	-714.6096801757812	1094.149047851562	-151.8661041259766	-468.6786804199219	1072.026123046875	-57.59358215332031	-495.4778137207031	494.5654907226562	-130.2987365722656	-445.7080993652344	643.7980346679688	-137.0862274169922	-303.342041015625	138.1952819824219	-486.9183044433594	-362.4892578125	337.7085876464844	-312.1407470703125	-503.7679443359375	27.28299903869629	-490.4573059082031	-461.0183715820312	86.54782867431641	-517.6492309570312	-379.2259521484375	41.41358184814453	-461.2449645996094	-302.5583801269531	219.6979370117188	-533.994140625	-771.069091796875	554.665283203125	-125.0097961425781	-770.6963500976562	827.4000244140625	-187.4472808837891	-789.4524536132812	25.35872650146484	-174.557373046875	-794.700439453125	417.9100952148438	-134.89111328125	-786.7827758789062	52.80715942382812	62.39473724365234	-734.0858764648438	43.95363616943359	14.1238489151001	-840.219970703125	37.94633102416992	-49.01930618286133	-728.190673828125	30.47026252746582	-218.0144805908203	
458	4.57	-580.4911499023438	1115.738647460938	-313.3905639648438	-452.4217529296875	1107.98681640625	-263.1988525390625	-512.35205078125	1145.360229492188	-291.5750122070312	-593.544921875	1340.886840820312	-78.62643432617188	-493.5325622558594	1297.080688476562	-314.3941955566406	-487.2559204101562	1589.1669921875	-266.3583068847656	-573.5404663085938	1476.414184570312	-106.2175979614258	-551.2169189453125	1408.73779296875	-357.1649475097656	-393.1728515625	1564.497192382812	-231.4757080078125	-368.72412109375	1544.425903320312	-124.5053253173828	-295.160400390625	1413.508911132812	-120.0133285522461	-277.1646118164062	1194.908325195312	-113.5772933959961	-296.210205078125	1188.035766601562	-199.8894348144531	-358.1116333007812	933.8477783203125	-56.68626403808594	-298.5487670898438	911.3556518554688	-118.7746047973633	-278.2592468261719	1079.42578125	-103.8469772338867	-380.5797729492188	742.052001953125	-66.45787048339844	-309.57470703125	835.300537109375	-95.78392791748047	-354.284423828125	843.343994140625	-42.63888168334961	-676.6734619140625	1576.832275390625	-291.1337585449219	-728.91455078125	1506.938110351562	-337.0416870117188	-768.119384765625	1218.20263671875	-374.081298828125	-678.9208374023438	1207.345703125	-337.5729064941406	-846.61181640625	976.3936767578125	-250.5347595214844	-839.954345703125	961.947265625	-332.2876586914062	-799.7874755859375	1147.052368164062	-363.4148559570312	-858.0868530273438	782.7842407226562	-227.3160552978516	-877.2274169921875	869.934326171875	-231.6194458007812	-871.2704467773438	863.9710083007812	-305.453857421875	-578.3287963867188	1779.80810546875	-217.5958099365234	-463.731689453125	1787.326171875	-28.51248359680176	-587.4686279296875	1819.373901367188	-42.38733291625977	-446.9132690429688	1752.696411132812	-208.2180938720703	-394.2107543945312	1006.704650878906	-138.9900207519531	-746.4501953125	1033.75830078125	-239.5801849365234	-718.59912109375	1095.294311523438	-143.1333312988281	-471.5120544433594	1073.086181640625	-52.21433258056641	-503.1360473632812	495.7996520996094	-112.0625991821289	-452.5404663085938	644.6732177734375	-123.7655334472656	-311.0088806152344	148.0857696533203	-477.3125305175781	-371.7349853515625	342.8055114746094	-297.6434326171875	-504.8699951171875	26.56377983093262	-481.2742919921875	-466.8030700683594	91.02241516113281	-506.3310852050781	-381.4425048828125	45.52852249145508	-455.8404235839844	-314.5131530761719	231.6405334472656	-520.3651123046875	-774.0698852539062	554.2718505859375	-121.6011276245117	-775.421630859375	828.430908203125	-180.1879577636719	-789.57470703125	25.37151145935059	-174.4685516357422	-797.08447265625	417.4573974609375	-132.5450134277344	-786.837158203125	51.69516372680664	62.75934600830078	-734.20556640625	43.46689987182617	14.25387954711914	-840.4417114257812	37.74715423583984	-48.90472030639648	-728.3517456054688	30.54339599609375	-218.0103149414062	
